<svg xmlns="http://www.w3.org/2000/svg" id="large_reg" data-name="large reg" viewBox="0 0 1706.9 1706.9"><defs><style>.cls-2{stroke-width:0;fill:#FAF9F6}</style></defs><path d="M1493.61 1.57H212.98C95.35 1.57 0 96.93 0 214.55v1279.37c0 117.63 95.35 212.98 212.98 212.98h1280.63c117.62 0 212.98-95.35 212.98-212.98V214.55c0-117.62-95.35-212.98-212.98-212.98ZM561.39 1047.9c0 64.81-52.72 117.53-117.53 117.53H321.54c-64.81 0-117.53-52.72-117.53-117.53V354.74c0-64.81 52.72-117.53 117.53-117.53h333.38c66.5 0 126.69 11.53 178.51 33.82 36.23 15.59 68.36 36.43 95.68 62.31 66.98 63.46 102.38 154.63 102.38 263.64s-35.33 200.65-102.17 264.77c-65.13 62.48-157.24 96.05-266.68 97.34h-12.51c-48.93 0-88.74 39.87-88.74 88.8Zm928.32 73.71c-22.45 27.92-55.87 43.94-91.69 43.94H763.57c-35.83 0-69.25-16.01-91.69-43.94-22.45-27.92-30.91-64-23.21-98.99l10.89-49.5h14.61c108.16-3.47 199.61-38.29 265.03-101.06 69.71-66.88 106.56-161.99 106.56-275.07s-36.94-207.77-106.84-274c-22.98-21.77-49.4-40.28-78.78-55.19l-14.94-6.95c20.33-15.33 45.34-23.75 70.85-23.75h329.46c26.71 0 52.89 9.22 73.71 25.96 20.82 16.74 35.45 40.33 41.19 66.42l152.5 693.16c7.7 34.99-.76 71.07-23.21 98.99Z" style="stroke-width:0;fill:#202020"/><path d="M860.15 267.8c29.37 14.92 55.8 33.42 78.78 55.19 69.89 66.22 106.84 160.97 106.84 274s-36.85 208.2-106.56 275.07c-65.43 62.77-156.87 97.59-265.03 101.06h-14.61l-10.89 49.5c-7.7 34.99.76 71.07 23.21 98.99s55.87 43.94 91.69 43.94h634.45c35.83 0 69.25-16.01 91.69-43.94 22.45-27.92 30.91-64 23.21-98.99l-152.5-693.16c-5.74-26.09-20.37-49.68-41.19-66.42-20.82-16.74-47-25.96-73.71-25.96H916.07c-25.51 0-50.52 8.42-70.85 23.75l14.94 6.95Z" class="cls-2"/><path d="M662.64 959.1c109.44-1.28 201.56-34.86 266.68-97.34 66.84-64.12 102.17-155.68 102.17-264.77s-35.4-200.18-102.38-263.64c-27.31-25.88-59.45-46.72-95.68-62.31-51.81-22.3-112.01-33.82-178.51-33.82H321.54c-64.81 0-117.53 52.72-117.53 117.53v693.16c0 64.81 52.72 117.53 117.53 117.53h122.32c64.8 0 117.53-52.72 117.53-117.53 0-48.93 39.81-88.8 88.74-88.8h12.51ZM219.03 1512.24c-1.43 0-2.65-.5-3.64-1.5s-1.5-2.22-1.5-3.64v-141.92c0-1.43.5-2.64 1.5-3.64s2.22-1.5 3.64-1.5h16.94c1.57 0 2.82.5 3.75 1.5.93 1 1.39 2.22 1.39 3.64v8.58c3.43-4.57 7.93-8.36 13.51-11.36 5.57-3 12.5-4.5 20.79-4.5 7.57 0 14.15 1.22 19.72 3.64 5.57 2.43 10.22 5.9 13.93 10.4 3.72 4.5 6.57 9.83 8.58 15.97 2 6.15 3.14 12.94 3.43 20.37.14 2.43.21 4.93.21 7.5s-.07 5.14-.21 7.72c-.14 7.15-1.22 13.76-3.22 19.83-2 6.08-4.9 11.36-8.68 15.86-3.79 4.5-8.47 8.04-14.04 10.61-5.57 2.57-12.15 3.86-19.72 3.86s-14.29-1.39-19.72-4.18-9.86-6.46-13.29-11.04v48.67c0 1.43-.47 2.64-1.39 3.64-.93 1-2.18 1.5-3.75 1.5h-18.22Zm48.45-61.53c6.14 0 10.93-1.32 14.36-3.97 3.43-2.64 5.9-6.11 7.4-10.4s2.39-9 2.68-14.15c.28-4.29.28-8.58 0-12.86-.29-5.14-1.18-9.86-2.68-14.15-1.5-4.29-3.97-7.75-7.4-10.4-3.43-2.64-8.22-3.97-14.36-3.97s-10.61 1.36-14.26 4.07c-3.64 2.72-6.29 6.18-7.93 10.4-1.64 4.22-2.61 8.54-2.89 12.97-.14 2.57-.21 5.29-.21 8.15s.07 5.65.21 8.36c.14 4.29 1.14 8.4 3 12.33 1.86 3.93 4.57 7.18 8.15 9.75 3.57 2.57 8.22 3.86 13.93 3.86ZM366.95 1473.65c-7.43 0-14.15-1.47-20.15-4.39-6-2.93-10.76-6.86-14.26-11.79-3.5-4.93-5.25-10.47-5.25-16.61 0-10 4.04-17.97 12.11-23.9s18.76-9.89 32.05-11.9l29.37-4.29v-4.5c0-6-1.5-10.64-4.5-13.93-3-3.29-8.15-4.93-15.43-4.93-5.14 0-9.33 1.04-12.54 3.11-3.22 2.07-5.61 4.82-7.18 8.25-1.15 1.86-2.79 2.79-4.93 2.79H339.3c-1.57 0-2.75-.43-3.54-1.29-.79-.86-1.18-2-1.18-3.43.14-2.28 1.07-5.07 2.79-8.36 1.72-3.29 4.43-6.46 8.15-9.54 3.72-3.07 8.5-5.68 14.36-7.82 5.86-2.14 12.93-3.22 21.22-3.22 9 0 16.61 1.11 22.83 3.32 6.22 2.22 11.18 5.18 14.9 8.9 3.72 3.72 6.43 8.08 8.15 13.08 1.71 5 2.57 10.29 2.57 15.87v67.32c0 1.43-.5 2.65-1.5 3.64s-2.22 1.5-3.64 1.5h-17.37c-1.57 0-2.82-.5-3.75-1.5-.93-1-1.39-2.21-1.39-3.64v-8.36c-1.86 2.72-4.36 5.25-7.5 7.61-3.15 2.36-6.97 4.29-11.47 5.79-4.5 1.5-9.83 2.25-15.97 2.25Zm7.29-20.36c5 0 9.54-1.07 13.61-3.22 4.07-2.14 7.29-5.47 9.65-9.97s3.54-10.18 3.54-17.04v-4.5l-21.44 3.43c-8.44 1.29-14.72 3.36-18.87 6.22s-6.22 6.36-6.22 10.51c0 3.14.97 5.82 2.89 8.04 1.93 2.22 4.4 3.86 7.4 4.93s6.14 1.61 9.43 1.61ZM481.7 1473.65c-8.72 0-16.26-1.97-22.62-5.9-6.36-3.93-11.26-9.5-14.69-16.72-3.43-7.22-5.14-15.76-5.14-25.62v-60.24c0-1.43.5-2.64 1.5-3.64s2.21-1.5 3.64-1.5h18.87c1.57 0 2.82.5 3.75 1.5.93 1 1.39 2.22 1.39 3.64v58.96c0 17.72 7.79 26.58 23.37 26.58 7.43 0 13.32-2.36 17.69-7.07 4.36-4.72 6.54-11.22 6.54-19.51v-58.96c0-1.43.5-2.64 1.5-3.64s2.21-1.5 3.64-1.5h18.87c1.43 0 2.64.5 3.64 1.5s1.5 2.22 1.5 3.64v101.19c0 1.43-.5 2.65-1.5 3.64-1 1-2.22 1.5-3.64 1.5h-17.37c-1.57 0-2.82-.5-3.75-1.5-.93-1-1.39-2.21-1.39-3.64v-8.79c-3.86 5-8.65 8.93-14.36 11.79-5.72 2.86-12.86 4.29-21.44 4.29ZM560 1471.51c-1.43 0-2.65-.5-3.64-1.5-1-1-1.5-2.21-1.5-3.64v-141.92c0-1.43.5-2.64 1.5-3.64s2.21-1.5 3.64-1.5h17.79c1.43 0 2.64.5 3.64 1.5s1.5 2.22 1.5 3.64v141.92c0 1.43-.5 2.65-1.5 3.64s-2.22 1.5-3.64 1.5H560ZM680.85 1473.65c-7.43 0-14.15-1.47-20.15-4.39-6-2.93-10.76-6.86-14.26-11.79-3.5-4.93-5.25-10.47-5.25-16.61 0-10 4.04-17.97 12.11-23.9s18.76-9.89 32.05-11.9l29.37-4.29v-4.5c0-6-1.5-10.64-4.5-13.93-3-3.29-8.15-4.93-15.43-4.93-5.15 0-9.33 1.04-12.54 3.11-3.22 2.07-5.61 4.82-7.18 8.25-1.15 1.86-2.79 2.79-4.93 2.79H653.2c-1.57 0-2.75-.43-3.54-1.29-.79-.86-1.18-2-1.18-3.43.14-2.28 1.07-5.07 2.79-8.36 1.72-3.29 4.43-6.46 8.15-9.54 3.71-3.07 8.5-5.68 14.36-7.82 5.86-2.14 12.93-3.22 21.22-3.22 9 0 16.61 1.11 22.83 3.32 6.22 2.22 11.18 5.18 14.9 8.9 3.72 3.72 6.43 8.08 8.15 13.08 1.71 5 2.57 10.29 2.57 15.87v67.32c0 1.43-.5 2.65-1.5 3.64-1 1-2.22 1.5-3.64 1.5h-17.37c-1.57 0-2.82-.5-3.75-1.5-.93-1-1.39-2.21-1.39-3.64v-8.36c-1.86 2.72-4.36 5.25-7.5 7.61-3.15 2.36-6.97 4.29-11.47 5.79-4.5 1.5-9.83 2.25-15.97 2.25Zm7.28-20.36c5 0 9.54-1.07 13.61-3.22 4.07-2.14 7.29-5.47 9.65-9.97 2.36-4.5 3.54-10.18 3.54-17.04v-4.5l-21.44 3.43c-8.44 1.29-14.72 3.36-18.87 6.22s-6.22 6.36-6.22 10.51c0 3.14.97 5.82 2.89 8.04 1.93 2.22 4.39 3.86 7.4 4.93 3 1.07 6.14 1.61 9.43 1.61ZM758.56 1471.51c-1.43 0-2.65-.5-3.64-1.5-1-1-1.5-2.21-1.5-3.64V1365.4c0-1.57.5-2.86 1.5-3.86s2.22-1.5 3.64-1.5h17.37c1.43 0 2.68.5 3.75 1.5 1.07 1 1.61 2.29 1.61 3.86v8.79c3.29-4.57 7.54-8.07 12.76-10.5 5.22-2.43 11.26-3.64 18.12-3.64h8.79c1.57 0 2.82.5 3.75 1.5.93 1 1.39 2.22 1.39 3.64v15.44c0 1.43-.47 2.65-1.39 3.64-.93 1-2.18 1.5-3.75 1.5h-16.72c-6.86 0-12.19 1.93-15.97 5.79-3.79 3.86-5.68 9.15-5.68 15.86v58.96c0 1.43-.5 2.65-1.5 3.64-1 1-2.29 1.5-3.86 1.5h-18.65ZM838.2 1341.59c-1.57 0-2.82-.46-3.75-1.39-.93-.93-1.39-2.18-1.39-3.75v-15.44c0-1.43.46-2.64 1.39-3.64.93-1 2.18-1.5 3.75-1.5h19.51c1.57 0 2.86.5 3.86 1.5s1.5 2.22 1.5 3.64v15.44c0 1.57-.5 2.82-1.5 3.75-1 .93-2.29 1.39-3.86 1.39H838.2Zm.86 129.92c-1.43 0-2.65-.5-3.64-1.5-1-1-1.5-2.21-1.5-3.64v-101.19c0-1.43.5-2.64 1.5-3.64s2.22-1.5 3.64-1.5h17.79c1.57 0 2.82.5 3.75 1.5.93 1 1.39 2.22 1.39 3.64v101.19c0 1.43-.47 2.65-1.39 3.64-.93 1-2.18 1.5-3.75 1.5h-17.79ZM922.99 1473.65c-15.86 0-28.44-4.57-37.73-13.72-9.29-9.14-14.29-22.15-15.01-39.02-.14-1.43-.21-3.25-.21-5.47s.07-3.97.21-5.25c.57-10.72 3.03-20.01 7.4-27.87 4.36-7.86 10.4-13.9 18.11-18.11 7.72-4.21 16.79-6.32 27.23-6.32 11.58 0 21.29 2.4 29.16 7.18 7.86 4.79 13.79 11.44 17.79 19.94 4 8.51 6 18.33 6 29.48v4.5c0 1.43-.5 2.65-1.5 3.64-1 1-2.29 1.5-3.86 1.5H899.4v1.72c.14 5 1.11 9.61 2.89 13.83 1.78 4.22 4.43 7.61 7.93 10.18 3.5 2.57 7.68 3.86 12.54 3.86 4 0 7.36-.61 10.08-1.82 2.71-1.21 4.93-2.61 6.65-4.18 1.71-1.57 2.93-2.86 3.64-3.86 1.29-1.72 2.32-2.75 3.11-3.11.78-.35 1.96-.54 3.54-.54h18.44c1.43 0 2.61.43 3.54 1.29.93.86 1.32 1.93 1.18 3.22-.14 2.29-1.32 5.07-3.54 8.36-2.22 3.29-5.4 6.51-9.54 9.65-4.15 3.15-9.33 5.76-15.54 7.82-6.22 2.07-13.33 3.11-21.33 3.11Zm-23.59-67.53h47.38v-.64c0-5.57-.93-10.43-2.79-14.58-1.86-4.14-4.58-7.43-8.15-9.86-3.57-2.43-7.86-3.64-12.86-3.64s-9.29 1.22-12.86 3.64c-3.57 2.43-6.25 5.72-8.04 9.86-1.79 4.15-2.68 9-2.68 14.58v.64ZM1028.15 1473.65c-8.58 0-15.9-1-21.97-3-6.08-2-11.04-4.5-14.9-7.5-3.86-3-6.72-6-8.58-9-1.86-3-2.86-5.5-3-7.5-.14-1.57.32-2.82 1.39-3.75 1.07-.93 2.25-1.39 3.54-1.39h16.94c.57 0 1.07.07 1.5.21.43.14 1 .57 1.71 1.29 1.86 1.57 3.82 3.22 5.9 4.93 2.07 1.71 4.54 3.18 7.4 4.39 2.86 1.22 6.43 1.82 10.72 1.82 5.57 0 10.25-1.11 14.04-3.32 3.79-2.21 5.68-5.39 5.68-9.54 0-3-.82-5.43-2.47-7.29-1.64-1.86-4.68-3.54-9.11-5.04s-10.72-3.11-18.87-4.82c-8.01-1.86-14.65-4.21-19.94-7.07-5.29-2.86-9.22-6.43-11.79-10.72-2.57-4.29-3.86-9.29-3.86-15.01s1.68-10.9 5.04-15.97c3.36-5.07 8.36-9.25 15.01-12.54 6.65-3.29 14.9-4.93 24.76-4.93 7.72 0 14.43.97 20.15 2.89 5.72 1.93 10.47 4.32 14.26 7.18 3.79 2.86 6.68 5.75 8.68 8.68 2 2.93 3.07 5.47 3.22 7.61.14 1.57-.29 2.82-1.29 3.75-1 .93-2.14 1.39-3.43 1.39h-15.86c-.72 0-1.36-.14-1.93-.43-.57-.28-1.15-.64-1.71-1.07-1.57-1.43-3.29-2.93-5.15-4.5-1.86-1.57-4.11-2.96-6.75-4.18-2.65-1.21-6.11-1.82-10.4-1.82-5.43 0-9.58 1.18-12.43 3.54-2.86 2.36-4.29 5.33-4.29 8.9 0 2.43.68 4.54 2.04 6.32 1.36 1.79 4.11 3.47 8.25 5.04 4.14 1.57 10.43 3.22 18.87 4.93 9.57 1.71 17.18 4.25 22.83 7.61 5.64 3.36 9.65 7.22 12.01 11.58 2.36 4.36 3.54 9.18 3.54 14.47 0 6.43-1.9 12.22-5.68 17.36-3.79 5.15-9.36 9.19-16.72 12.11-7.36 2.93-16.47 4.39-27.33 4.39Z" class="cls-2"/></svg>