<svg xmlns="http://www.w3.org/2000/svg" id="small_transparent" data-name="small transparent" viewBox="0 0 1706.9 1317.71"><defs><style>.cls-2{stroke-width:0;fill:#fff}</style></defs><path d="M321.55 1123.43h122.32c64.8 0 117.53-52.72 117.53-117.53 0-48.93 39.81-88.8 88.74-88.8h12.51c109.44-1.28 201.56-34.86 266.68-97.34 66.84-64.12 102.17-155.68 102.17-264.77s-35.4-200.18-102.38-263.64c-27.31-25.88-59.45-46.72-95.68-62.31-51.81-22.3-112.01-33.82-178.51-33.82H321.55c-64.81 0-117.53 52.72-117.53 117.53v693.16c0 64.81 52.72 117.53 117.53 117.53Z" class="cls-2"/><path d="M938.93 280.99c69.89 66.22 106.84 160.97 106.84 274s-36.85 208.2-106.56 275.07c-65.43 62.77-156.87 97.59-265.03 101.06h-14.61l-10.89 49.5c-7.7 34.99.76 71.07 23.21 98.99s55.87 43.94 91.69 43.94h634.45c35.83 0 69.25-16.01 91.69-43.94 22.45-27.92 30.91-64 23.21-98.99l-152.5-693.16c-5.74-26.09-20.37-49.68-41.19-66.42-20.82-16.74-47-25.96-73.71-25.96H916.07c-25.51 0-50.52 8.42-70.85 23.75l14.94 6.95c29.37 14.92 55.8 33.42 78.78 55.19Z" class="cls-2"/><path d="M1493.61.25H212.98C95.35.25 0 95.6 0 213.22v891.51c0 117.62 95.35 212.98 212.98 212.98h1280.63c117.62 0 212.98-95.35 212.98-212.98V213.22C1706.58 95.6 1611.23.25 1493.61.25Zm-564.5 291.1c66.98 63.46 102.38 154.63 102.38 263.64s-35.33 200.65-102.17 264.77c-65.13 62.48-157.24 96.05-266.68 97.34h-12.51c-48.93 0-88.74 39.87-88.74 88.8 0 64.81-52.72 117.53-117.53 117.53H321.54c-64.81 0-117.53-52.72-117.53-117.53V312.75c0-64.81 52.72-117.53 117.53-117.53h333.38c66.5 0 126.69 11.53 178.51 33.82 36.23 15.59 68.36 36.43 95.68 62.31Zm560.6 788.27c-22.45 27.92-55.87 43.94-91.69 43.94H763.57c-35.83 0-69.25-16.01-91.69-43.94-22.45-27.92-30.91-64-23.21-98.99l10.89-49.5h14.61c108.16-3.47 199.61-38.29 265.03-101.06 69.71-66.88 106.56-161.99 106.56-275.07s-36.94-207.77-106.84-274c-22.98-21.77-49.4-40.28-78.78-55.19l-14.94-6.95c20.33-15.33 45.34-23.75 70.85-23.75h329.46c26.71 0 52.89 9.22 73.71 25.96 20.82 16.74 35.45 40.33 41.19 66.42l152.5 693.16c7.7 34.99-.76 71.07-23.21 98.99Z" style="stroke-width:0;fill:#202020"/></svg>