<svg xmlns="http://www.w3.org/2000/svg" width="16" height="16" id="small_transparent" data-name="small transparent" viewBox="0 0 551.08 551.08"><defs><style>.cls-1{fill:#FAF9F6;stroke-width:0}</style></defs><path d="M417.4 133.68c-37.89-37.89-88.27-58.76-141.86-58.76s-103.96 20.87-141.86 58.76c-37.89 37.89-58.76 88.27-58.76 141.86S95.79 379.5 133.68 417.4c37.89 37.89 88.27 58.76 141.86 58.76S379.5 455.29 417.4 417.4c37.89-37.89 58.76-88.27 58.76-141.86s-20.87-103.96-58.76-141.86ZM275.54 416.53c-77.87 0-140.99-63.12-140.99-140.99s63.12-140.99 140.99-140.99 140.99 63.12 140.99 140.99-63.12 140.99-140.99 140.99Z" class="cls-1"/><path d="M275.54 164.55c-29.65 0-57.52 11.54-78.48 32.51-20.96 20.96-32.51 48.83-32.51 78.48s11.54 57.52 32.51 78.48c20.96 20.96 48.83 32.51 78.48 32.51s57.52-11.54 78.48-32.51c20.96-20.96 32.51-48.83 32.51-78.48s-11.54-57.52-32.51-78.48-48.83-32.51-78.48-32.51Zm0 163.55c-29.03 0-52.56-23.53-52.56-52.56s23.53-52.56 52.56-52.56 52.56 23.53 52.56 52.56-23.53 52.56-52.56 52.56Z" class="cls-1"/><path d="M275.54 0C123.36 0 0 123.36 0 275.54s123.36 275.54 275.54 275.54 275.54-123.36 275.54-275.54S427.72 0 275.54 0Zm0 506.15c-127.36 0-230.61-103.25-230.61-230.61S148.18 44.93 275.54 44.93s230.61 103.25 230.61 230.61S402.9 506.15 275.54 506.15Z" class="cls-1"/><path d="M275.54 252.98c-12.44 0-22.56 10.12-22.56 22.56s10.12 22.56 22.56 22.56 22.56-10.12 22.56-22.56-10.12-22.56-22.56-22.56Z" class="cls-1"/></svg>