<?xml version="1.0" encoding="UTF-8"?>
<svg id="small_transparent" data-name="small transparent" xmlns="http://www.w3.org/2000/svg" viewBox="0 0 551.08 551.08">
  <defs>
    <style>
      .cls-1 {
        fill: #fff;
        stroke-width: 0px;
      }
    </style>
  </defs>
  <path class="cls-1" d="M426.33,376.97l-101.43-101.43,101.43-101.43,117.42-117.42c9.49-9.49,9.8-24.79.69-34.65-4.93-5.33-10.07-10.47-15.4-15.4-9.86-9.11-25.16-8.8-34.65.69l-117.42,117.42-101.43,101.43-101.43-101.43L56.69,7.33c-9.49-9.49-24.79-9.8-34.65-.69-5.33,4.93-10.47,10.07-15.4,15.4-9.11,9.86-8.8,25.16.69,34.65l117.42,117.42,101.43,101.43-101.43,101.43L7.33,494.39c-9.49,9.49-9.8,24.79-.69,34.65,4.93,5.33,10.07,10.47,15.4,15.4,9.86,9.11,25.16,8.8,34.65-.69l117.42-117.42,101.43-101.43,101.43,101.43,117.42,117.42c9.49,9.49,24.79,9.8,34.65.69,5.33-4.93,10.47-10.07,15.4-15.4,9.11-9.86,8.8-25.16-.69-34.65l-117.42-117.42Z"/>
</svg>