<svg xmlns="http://www.w3.org/2000/svg" width="16" height="16" data-name="small transparent" viewBox="0 0 551.08 551.08">
  <path d="M475.91 191.28 358.49 73.86c-9.49-9.49-24.79-9.8-34.65-.69a279.602 279.602 0 0 0-15.4 15.4c-9.11 9.86-8.8 25.16.69 34.65l117.42 117.42H25.2c-13.42 0-24.47 10.6-24.99 24.01a280.996 280.996 0 0 0 0 21.78c.52 13.41 11.57 24.01 24.99 24.01h401.35L309.13 427.86c-9.49 9.49-9.8 24.79-.69 34.65 4.93 5.33 10.07 10.47 15.4 15.4 9.86 9.11 25.16 8.8 34.65-.69L475.91 359.8l67.84-67.84c9.89-9.89 9.74-25.98-.34-35.69l-67.51-64.99Z" style="fill:#FAF9F6;stroke-width:0"/>
</svg>