<svg xmlns="http://www.w3.org/2000/svg" width="16" height="16" id="small_transparent" data-name="small transparent" viewBox="0 0 551.08 551.08"><defs><style>.cls-1{fill:#FAF9F6;stroke-width:0}</style></defs><path d="M373.68 254.26a158.489 158.489 0 0 1-36.21 21.35c-19.63 8.3-40.46 12.51-61.92 12.51s-42.29-4.21-61.92-12.51a158.489 158.489 0 0 1-36.21-21.35C77.59 265.49 0 350.17 0 452.98v48.1c0 27.61 22.39 50 50 50h451.08c27.61 0 50-22.39 50-50v-48.1c0-102.82-77.59-187.5-177.4-198.72Z" class="cls-1"/><path d="M239.39 252.98c11.47 3.34 23.6 5.14 36.15 5.14s24.68-1.8 36.15-5.14c53.68-15.64 92.91-65.19 92.91-123.92C404.6 57.78 346.82 0 275.54 0S146.48 57.78 146.48 129.06c0 58.73 39.23 108.29 92.91 123.92Z" class="cls-1"/></svg>