<svg xmlns="http://www.w3.org/2000/svg" width="16" height="16" data-name="small transparent" viewBox="0 0 551.08 551.08"><path d="M551.08 275.54c0-3.65-.07-7.28-.21-10.89-.52-13.41-11.57-24.01-24.99-24.01H359.8l117.42-117.42c9.49-9.49 9.8-24.79.69-34.65a279.602 279.602 0 0 0-15.4-15.4c-9.86-9.11-25.16-8.8-34.65.69L310.44 191.28V25.2c0-13.42-10.6-24.47-24.01-24.99a280.996 280.996 0 0 0-21.78 0c-13.41.52-24.01 11.57-24.01 24.99v166.08L123.22 73.86c-9.49-9.49-24.79-9.8-34.65-.69a279.602 279.602 0 0 0-15.4 15.4c-9.11 9.86-8.8 25.16.69 34.65l117.42 117.42H25.2c-13.42 0-24.47 10.6-24.99 24.01a280.996 280.996 0 0 0 0 21.78c.52 13.41 11.57 24.01 24.99 24.01h166.08L73.86 427.86c-9.49 9.49-9.8 24.79-.69 34.65 4.93 5.33 10.07 10.47 15.4 15.4 9.86 9.11 25.16 8.8 34.65-.69L240.64 359.8v166.08c0 13.42 10.6 24.47 24.01 24.99a280.996 280.996 0 0 0 21.78 0c13.41-.52 24.01-11.57 24.01-24.99V359.8l117.42 117.42c9.49 9.49 24.79 9.8 34.65.69 5.33-4.93 10.47-10.07 15.4-15.4 9.11-9.86 8.8-25.16-.69-34.65L359.8 310.44h166.08c13.42 0 24.47-10.6 24.99-24.01.14-3.61.21-7.24.21-10.89Z" style="fill:#FAF9F6;stroke-width:0"/></svg>