<svg xmlns="http://www.w3.org/2000/svg" width="16" height="16" data-name="small transparent" viewBox="0 0 551.08 551.08"><path d="M535.62 175.34 296.24 8.35a36.49 36.49 0 0 0-42.16 0l-107.72 76.2V36.5C146.37 16.34 130.03 0 109.87 0H93.16C73 0 56.66 16.34 56.66 36.5v111.51l-41.2 27.33A36.495 36.495 0 0 0 .04 205.13L0 496.99c0 29.87 24.75 54.09 52.11 54.09h162.37V398.09c0-20.16 16.34-36.5 36.5-36.5h52.62c20.16 0 36.5 16.34 36.5 36.5v152.99h158.88c27.36 0 52.11-24.22 52.11-54.09V205.17c0-11.86-5.77-22.99-15.46-29.83Z" style="fill:#FAF9F6;stroke-width:0"/></svg>