<?xml version="1.0" encoding="UTF-8"?>
<svg id="small_transparent" data-name="small transparent" xmlns="http://www.w3.org/2000/svg" viewBox="0 0 551.08 551.08">
  <defs>
    <style>
      .cls-1 {
        fill: #FAF9F6;
        stroke-width: 0px;
      }
    </style>
  </defs>
  <path class="cls-1" d="M525.88,310.44c13.42,0,24.47-10.6,24.99-24.01.14-3.61.21-7.24.21-10.89s-.07-7.28-.21-10.89c-.52-13.41-11.57-24.01-24.99-24.01H25.2c-13.42,0-24.47,10.6-24.99,24.01C.07,268.26,0,271.89,0,275.54s.07,7.28.21,10.89c.52,13.41,11.57,24.01,24.99,24.01h500.68Z"/>
  <path class="cls-1" d="M525.88,551.08c13.42,0,24.47-10.6,24.99-24.01.14-3.61.21-7.24.21-10.89s-.07-7.28-.21-10.89c-.52-13.41-11.57-24.01-24.99-24.01H25.2c-13.42,0-24.47,10.6-24.99,24.01-.14,3.61-.21,7.24-.21,10.89s.07,7.28.21,10.89c.52,13.41,11.57,24.01,24.99,24.01h500.68Z"/>
  <path class="cls-1" d="M525.88,69.8c13.42,0,24.47-10.6,24.99-24.01.14-3.61.21-7.24.21-10.89s-.07-7.28-.21-10.89C550.35,10.6,539.3,0,525.88,0H25.2C11.78,0,.73,10.6.21,24.01.07,27.62,0,31.26,0,34.9s.07,7.28.21,10.89c.52,13.41,11.57,24.01,24.99,24.01h500.68Z"/>
</svg>