<svg xmlns="http://www.w3.org/2000/svg" id="Layer_1" viewBox="0 0 100 100"><defs><style>.cls-1{fill:#d9d9d9;stroke-width:0}</style></defs><path d="M72.77 42.86c-4.52 0-6.35 4.13-6.64 6.97h12.64c.02-2.57-1.13-6.97-6-6.97ZM32.41 31.59h-.15c-.7 2.79-1.41 6.38-2.17 9.13l-2.83 10.05h10.48l-2.95-10.06c-.81-2.8-1.65-6.35-2.38-9.12Z" class="cls-1"/><path d="M85.59 0H14.41C6.45 0 0 6.45 0 14.41v71.35c0 7.96 6.45 14.41 14.41 14.41h71.17c7.96 0 14.41-6.45 14.41-14.41V14.41C99.99 6.45 93.54 0 85.58 0ZM42.96 70.91l-3.64-12.16H25.71l-3.34 12.16H11.3l14.45-47.35h14.01L54.5 70.91H42.96Zm45.36-13.76h-22.1c.32 4.44 4.7 6.54 9.69 6.54 3.62 0 6.58-.49 9.46-1.46l1.44 7.23c-3.56 1.45-7.85 2.17-12.46 2.17-11.65 0-18.34-6.78-18.34-17.5 0-8.74 5.45-18.4 17.33-18.4 11.14 0 15.35 8.66 15.35 17.17 0 1.86-.19 3.44-.38 4.23Z" class="cls-1"/></svg>