<svg xmlns="http://www.w3.org/2000/svg" id="Layer_1" viewBox="0 0 100 100"><defs><style>.cls-1{fill:#d9d9d9;stroke-width:0}</style></defs><path d="M41.99 32.93h-.15c-.7 2.79-1.41 6.38-2.17 9.13l-2.83 10.05h10.48l-2.95-10.06c-.81-2.8-1.65-6.35-2.38-9.12Z" class="cls-1"/><path d="M85.59 0H14.41C6.45 0 0 6.45 0 14.41v71.35c0 7.96 6.45 14.41 14.41 14.41h71.17c7.96 0 14.41-6.45 14.41-14.41V14.41C99.99 6.45 93.54 0 85.58 0ZM52.54 72.24 48.9 60.08H35.28l-3.34 12.16H20.87l14.45-47.35h14.01l14.74 47.35H52.53Zm26.28 0H68.11V37.85h10.71v34.39Zm-5.44-38.59c-3.38 0-5.58-2.36-5.56-5.34-.01-3.06 2.23-5.35 5.66-5.35s5.61 2.29 5.65 5.35c.01 2.98-2.19 5.34-5.75 5.34Z" class="cls-1"/></svg>