<svg xmlns="http://www.w3.org/2000/svg" width="64" height="64" fill="none"><path fill="#D9D9D9" fill-rule="evenodd" d="M50.36 5H5v45.36A8.64 8.64 0 0 0 13.64 59h36.72A8.64 8.64 0 0 0 59 50.36V13.64A8.64 8.64 0 0 0 50.36 5Zm-5.29 48.144c.937 1.022 2.274 1.53 4.023 1.53h.001c1.749 0 3.119-.503 4.104-1.503.991-1 1.479-2.434 1.479-4.3 0-1.558-.304-2.802-.921-3.733-.612-.936-1.608-1.71-2.989-2.342l-1.338-.59a3.52 3.52 0 0 1-1.37-.942c-.26-.378-.39-.876-.39-1.514 0-1.26.531-1.893 1.593-1.893.595 0 .996.206 1.202.616a3.9 3.9 0 0 1 .362 1.785h3.629c-.039-1.882-.515-3.32-1.425-4.327-.893-1-2.16-1.504-3.796-1.504-1.695 0-3.021.508-3.996 1.53-.947 1.023-1.424 2.354-1.424 3.993 0 1.466.27 2.612.812 3.43.558.822 1.462 1.525 2.708 2.12l1.397.671a3.953 3.953 0 0 1 1.592 1.142c.314.427.476.968.476 1.617 0 .817-.124 1.412-.362 1.785-.244.373-.666.563-1.262.563-1.17 0-1.765-.85-1.787-2.543H43.62c.043 1.915.525 3.381 1.452 4.409Zm-12.173 0c.937 1.022 2.274 1.53 4.024 1.53 1.749 0 3.119-.503 4.104-1.503.986-1 1.478-2.434 1.478-4.3 0-1.558-.308-2.802-.92-3.733-.612-.936-1.608-1.71-2.99-2.342l-1.337-.59a3.52 3.52 0 0 1-1.37-.942c-.26-.378-.39-.876-.39-1.514 0-1.26.531-1.893 1.593-1.893.595 0 .996.206 1.202.616a3.9 3.9 0 0 1 .363 1.785h3.627c-.037-1.882-.508-3.32-1.429-4.327-.888-1-2.155-1.504-3.79-1.504-1.695 0-3.022.508-3.997 1.53-.947 1.023-1.424 2.354-1.424 3.993 0 1.466.27 2.612.812 3.43.558.822 1.462 1.525 2.708 2.12l1.397.671a3.954 3.954 0 0 1 1.592 1.142c.314.427.47.968.47 1.617 0 .817-.118 1.412-.362 1.785-.238.373-.66.563-1.256.563-1.17 0-1.765-.85-1.787-2.543h-3.769c.043 1.915.525 3.381 1.451 4.409Zm-12.73.135c1.007.93 2.365 1.396 4.077 1.396a6.558 6.558 0 0 0 2.962-.639 4.794 4.794 0 0 0 2.063-1.925c.504-.855.753-1.926.753-3.208v-.617h-3.99v.59a2.794 2.794 0 0 1-.418 1.644c-.282.39-.688.585-1.229.585-1.153-.016-1.733-.855-1.733-2.505v-7.898a4.267 4.267 0 0 1 .363-1.98c.26-.449.72-.67 1.37-.67a1.43 1.43 0 0 1 1.17.557c.314.357.476.904.476 1.644v.698h3.99v-.72c0-1.92-.503-3.359-1.505-4.327-.99-.963-2.328-1.45-4.023-1.45-1.749 0-3.162.477-4.24 1.418-1.06.952-1.592 2.337-1.592 4.165v9.087c0 1.84.499 3.23 1.506 4.155Z" clip-rule="evenodd"/></svg>