<svg xmlns="http://www.w3.org/2000/svg" id="Layer_1" viewBox="0 0 100 100"><defs><style>.cls-1{fill:#d9d9d9;stroke-width:0}</style></defs><path d="M35.26 31.87c-2.11 0-3.59.17-4.37.35v13.99c.89.2 1.99.28 3.55.28 5.68 0 9.2-2.88 9.2-7.68 0-4.36-2.98-6.95-8.38-6.95Z" class="cls-1"/><path d="M85.59 0H14.41C6.45 0 0 6.45 0 14.41v71.35c0 7.96 6.45 14.41 14.41 14.41h71.17c7.96 0 14.41-6.45 14.41-14.41V14.41C99.99 6.45 93.54 0 85.58 0ZM49.92 49.72c-3.66 3.44-9.11 5.02-15.38 5.02-1.42 0-2.69-.09-3.65-.24v16.95H20.28V24.74c3.29-.55 7.93-1 14.45-1s11.32 1.28 14.49 3.82c3.03 2.35 5.02 6.31 5.02 10.95s-1.5 8.59-4.32 11.21Zm29.8-3.17c-.83-.17-1.69-.3-2.89-.3-3.93 0-6.61 2.08-7.33 5.43-.13.68-.2 1.51-.2 2.38v17.4H58.59V48.41c0-5.05-.09-8.37-.28-11.34h9.19l.39 6.36h.26c1.77-5.03 5.95-7.14 9.28-7.14.99 0 1.49.02 2.29.2v10.05Z" class="cls-1"/></svg>