<svg xmlns="http://www.w3.org/2000/svg" width="64" height="64" id="Layer_1" viewBox="0 0 100 100"><defs><style>.cls-1{fill:#d9d9d9;stroke-width:0}</style></defs><path d="M35.46 31.5c-2.11 0-3.59.17-4.37.35v13.99c.89.2 1.99.28 3.55.28 5.69 0 9.2-2.88 9.2-7.68 0-4.36-2.98-6.95-8.38-6.95Z" class="cls-1"/><path d="M85.59 0H14.41C6.45 0 0 6.45 0 14.41v71.35c0 7.96 6.45 14.41 14.41 14.41h71.17c7.96 0 14.41-6.45 14.41-14.41V14.41C99.99 6.45 93.54 0 85.58 0ZM50.12 49.36c-3.66 3.44-9.11 5.02-15.38 5.02-1.42 0-2.69-.09-3.65-.24v16.95H20.48V24.37c3.29-.55 7.93-1 14.45-1s11.32 1.28 14.49 3.82c3.03 2.35 5.02 6.31 5.02 10.95s-1.5 8.59-4.32 11.21Zm17 22.47c-4.48 0-8.51-1.01-11.13-2.42l1.94-7.63c1.95 1.2 6.06 2.56 9.17 2.56s4.61-1.09 4.61-2.84-1.09-2.64-5.05-3.98c-7.15-2.35-9.84-6.24-9.8-10.28 0-6.46 5.45-11.31 13.98-11.31 4.02 0 7.58.94 9.68 2l-1.86 7.36c-1.55-.81-4.54-1.94-7.45-1.94-2.61 0-4.1 1.04-4.1 2.77s1.36 2.52 5.58 3.97c6.52 2.22 9.26 5.57 9.3 10.59 0 6.42-5 11.14-14.86 11.14Z" class="cls-1"/></svg>